<?xml version="1.0" encoding="UTF-8" standalone="no"?>
<!-- Created with Inkscape (http://www.inkscape.org/) -->

<svg
   width="48px"
   height="48px"
   viewBox="0 0 200 200"
   version="1.1"
   id="svg1"
   xml:space="preserve"
   xmlns="http://www.w3.org/2000/svg"
   xmlns:svg="http://www.w3.org/2000/svg"><defs
     id="defs1" /><g
     id="layer2"><path
       id="path6"
       style="display:inline;fill:none;fill-opacity:1;stroke:#AAA;stroke-width:8;stroke-dasharray:none;stroke-opacity:1"
       d="m -111.26655,93.656742 v 67.438438 c 0,5.63663 -4.53781,10.17443 -10.17444,10.17443 h -36.78448 c -5.63663,0 -10.17443,-4.5378 -10.17443,-10.17443 V 85.040193"
       transform="rotate(-90)" /><circle
       style="display:inline;fill:none;stroke:#AAA;stroke-width:8;stroke-dasharray:none;stroke-opacity:1"
       id="path4"
       cx="64.691551"
       cy="139.30406"
       r="5.7394233" /><rect
       style="display:inline;fill:none;stroke:#AAA;stroke-width:8;stroke-dasharray:none;stroke-opacity:1"
       id="rect6"
       width="57.13335"
       height="134.61557"
       x="36.523602"
       y="33.914776"
       ry="10.174434" /><path
       id="rect7"
       style="display:inline;fill:none;stroke:#AAA;stroke-width:8;stroke-dasharray:none;stroke-opacity:1"
       d="m -176.57916,-61.937069 v -7.976151 c 0,-5.636631 4.5378,-10.174434 10.17443,-10.174434 v 0 l 8.03304,10e-7"
       transform="rotate(-135.08888)" /><path
       id="path9"
       style="display:inline;fill:none;stroke:#AAA;stroke-width:8;stroke-dasharray:none;stroke-opacity:1"
       d="m -131.41146,-80.087654 h 1.79121 c 5.63663,0 10.17444,4.537803 10.17444,10.174434 v 1.828508"
       transform="rotate(-135.08888)" /><path
       id="path14"
       style="display:inline;fill:none;stroke:#AAA;stroke-width:8;stroke-dasharray:none;stroke-opacity:1"
       d="M -119.44581 12.839875 L -119.44581 44.353482 C -119.44581 49.990107 -123.98363 54.527916 -129.62025 54.527916 L -166.40473 54.527916 C -172.04135 54.527916 -176.57916 49.990107 -176.57916 44.353482 L -176.57915 18.921009 "
       transform="rotate(-135.08888)" /></g></svg>
