<?xml version="1.0" encoding="UTF-8" standalone="no"?>
<!-- Created with Inkscape (http://www.inkscape.org/) -->

<svg
   width="600"
   height="600"
   viewBox="0 0 158.75 158.75"
   version="1.1"
   id="svg1"
   xml:space="preserve"
   inkscape:version="1.3.2 (091e20e, 2023-11-25, custom)"
   sodipodi:docname="scentefss.svg"
   xmlns:inkscape="http://www.inkscape.org/namespaces/inkscape"
   xmlns:sodipodi="http://sodipodi.sourceforge.net/DTD/sodipodi-0.dtd"
   xmlns="http://www.w3.org/2000/svg"
   xmlns:svg="http://www.w3.org/2000/svg"><sodipodi:namedview
     id="namedview1"
     pagecolor="#ffffff"
     bordercolor="#000000"
     borderopacity="0.25"
     inkscape:showpageshadow="2"
     inkscape:pageopacity="0.0"
     inkscape:pagecheckerboard="0"
     inkscape:deskcolor="#d1d1d1"
     inkscape:document-units="mm"
     inkscape:zoom="0.73139029"
     inkscape:cx="439.57379"
     inkscape:cy="239.95396"
     inkscape:window-width="1920"
     inkscape:window-height="1017"
     inkscape:window-x="3432"
     inkscape:window-y="1432"
     inkscape:window-maximized="1"
     inkscape:current-layer="layer2"
     showguides="true" /><defs
     id="defs1" /><g
     inkscape:groupmode="layer"
     id="layer2"
     inkscape:label="Layer 2"><path
       id="path4"
       style="display:inline;fill:none;stroke:#000000;stroke-width:2.117;stroke-linecap:round;stroke-dasharray:none;stroke-opacity:1"
       d="m 32.919611,109.24969 c 0,0 -5.788064,0.90439 -6.511572,8.50122 m 16.787706,-0.18087 A 10.999641,13.893674 0 0 1 32.196104,131.46372 10.999641,13.893674 0 0 1 21.196462,117.57004 10.999641,13.893674 0 0 1 32.196104,103.67637 10.999641,13.893674 0 0 1 43.195745,117.57004 Z M 89.172351,41.601704 c 0,0 -21.276648,0.463291 -31.291718,3.617541 -12.019388,3.78551 -18.787975,14.142044 -21.162606,25.684531 -2.182175,10.607003 -4.341049,32.196104 -4.341049,32.196104 M 91.983772,35.270862 c -1.22752,0 -2.215885,0.988365 -2.215885,2.215885 -0.05363,5.863065 -0.03798,4.787679 -0.03798,10.735392 3.621722,0.01622 8.433201,-0.195986 10.949663,-0.195986 -0.018,-1.598741 -0.0366,-2.080105 -0.0366,-3.801833 h 2.95434 c 1.22752,0 2.21588,-0.988365 2.21588,-2.215885 v -4.521688 c 0,-1.22752 -0.98836,-2.215885 -2.21588,-2.215885 z m -24.1763,70.029718 a 26.770005,26.770005 0 0 0 26.325744,22.17045 26.770005,26.770005 0 0 0 26.325304,-22.17045 z M 88.810581,48.28092 c -2.505144,0 -4.521688,2.016544 -4.521688,4.521688 V 63.709953 A 35.786797,35.786797 0 0 0 58.34629,98.099068 35.786797,35.786797 0 0 0 94.133253,133.88552 35.786797,35.786797 0 0 0 129.9197,98.099068 35.786797,35.786797 0 0 0 105.81316,64.279944 V 52.802608 c 0,-2.505144 -2.01706,-4.521688 -4.5222,-4.521688 z" /></g></svg>
