<?xml version="1.0" encoding="UTF-8" standalone="no"?>
<!-- Created with Inkscape (http://www.inkscape.org/) -->

<svg
   width="52px"
   height="52px"
   viewBox="0 0 600 600"
   version="1.1"
   id="svg1"
   xml:space="preserve"
   xmlns="http://www.w3.org/2000/svg"
   xmlns:svg="http://www.w3.org/2000/svg"><defs
     id="defs1" /><g
     id="layer1"><path
       id="path2"
       style="fill:none;stroke:#ccc;stroke-width:11.5049;stroke-linecap:round;stroke-linejoin:round;stroke-dasharray:none;stroke-opacity:1"
       d="M 85.078235,494.03385 389.61965,116.01578 M 246.32253,100.40956 c 2e-5,2.77971 -43.56979,5.03311 -97.31588,5.03311 -53.746085,0 -97.315891,-2.2534 -97.315875,-5.03311 2.7e-5,-2.779708 43.56982,-5.033106 97.315875,-5.033106 53.74606,0 97.31585,2.253398 97.31588,5.033106 z M 51.752216,99.768019 V 236.12852 c 6.589517,7.04359 64.106744,5.66984 96.249574,5.92083 32.81025,0.2562 92.78312,0.69393 98.33054,-4.50875 V 99.692441 M 531.52798,239.62849 c 2e-5,2.77971 -43.56979,5.03311 -97.31587,5.03311 -53.74609,0 -97.3159,-2.2534 -97.31588,-5.03311 -2e-5,-2.77971 43.56979,-5.03311 97.31588,-5.03311 53.74608,0 97.31589,2.2534 97.31587,5.03311 z m -194.57031,-0.64154 v 296.84899 c 6.58952,7.04359 64.10675,5.66984 96.24957,5.92083 32.81026,0.25621 92.78313,0.69393 98.33054,-4.50874 V 238.91137" /></g></svg>
