<?xml version="1.0" encoding="UTF-8" standalone="no"?>
<!-- Created with Inkscape (http://www.inkscape.org/) -->

<svg
   width="52px"
   height="52px"
   viewBox="0 0 158.75 158.75"
   version="1.1"
   id="svg1"
   xml:space="preserve"
   xmlns="http://www.w3.org/2000/svg"
   xmlns:svg="http://www.w3.org/2000/svg"><defs
     id="defs1" /><path
     style="display:inline;fill:none;stroke:#aaaaaa;stroke-width:3;stroke-linecap:round;stroke-linejoin:round;stroke-dasharray:none"
     d="m 138.74344,84.460342 v 0 c 0,5.402387 -27.16655,9.781887 -60.678178,9.781887 -33.500491,0 -60.66242,-4.376697 -60.678174,-9.777287"
     id="path7" /><path
     id="path20"
     style="display:inline;fill:none;stroke:#aaaaaa;stroke-width:3;stroke-linecap:round;stroke-linejoin:round;stroke-dasharray:none"
     d="m 122.01508,77.709717 c 10.49921,2.074193 13.01876,3.239333 14.53819,4.146238" /><path
     id="path26"
     style="display:inline;fill:none;stroke:#aaaaaa;stroke-width:3;stroke-linecap:round;stroke-linejoin:round;stroke-dasharray:none"
     d="m 83.601701,74.242672 c 13.177517,0.549208 9.98616,0.408104 20.203379,1.371179" /><path
     id="path24"
     style="display:inline;fill:none;stroke:#aaaaaa;stroke-width:3;stroke-linecap:round;stroke-linejoin:round;stroke-dasharray:none"
     d="M 50.259408,75.284233 C 60.424296,74.57742 56.612898,74.720532 69.577981,74.21301" /><path
     id="path22"
     style="display:inline;fill:none;stroke:#aaaaaa;stroke-width:3;stroke-linecap:round;stroke-linejoin:round;stroke-dasharray:none"
     d="m 19.576468,81.856412 c 3.223984,-1.90824 3.145023,-2.489201 12.606227,-3.742929" /><path
     id="path2"
     style="display:inline;fill:none;stroke:#aaaaaa;stroke-width:5;stroke-linecap:round;stroke-linejoin:round;stroke-dasharray:none"
     d="m 125.88855,72.882781 c 4.9183,0.909296 8.88773,2.446259 12.91116,6.332131 v 0 c 0,5.40224 -27.17914,9.781639 -60.706189,9.781639 -33.527038,0 -60.706195,-4.379399 -60.706192,-9.781639 0,-2.576649 7.130785,-5.441544 10.455518,-5.80489" /><path
     id="path30"
     style="display:inline;fill:none;stroke:#aaaaaa;stroke-width:5;stroke-linecap:round;stroke-linejoin:round;stroke-dasharray:none"
     d="m 87.885505,68.676363 c 7.26281,0.287548 8.359748,0.356169 14.571505,1.052087" /><path
     id="path28"
     style="display:inline;fill:none;stroke:#aaaaaa;stroke-width:5;stroke-linecap:round;stroke-linejoin:round;stroke-dasharray:none"
     d="m 52.721921,69.537014 c 3.490083,-0.569608 9.281202,-0.792142 12.847776,-0.632055" /><path
     id="path4"
     style="display:inline;fill:none;stroke:#aaaaaa;stroke-width:5;stroke-linecap:round;stroke-linejoin:round;stroke-dasharray:none"
     d="m 76.262489,47.492629 c 0,0 1.225053,6.332957 -3.070773,13.839346 -4.295826,7.506385 2.981333,8.001897 2.981333,8.001897 0,0 5.344801,0.842573 6.15347,-4.793983 0.38921,-2.712863 0.195905,-7.012374 -1.037503,-9.570078 -2.045488,-4.241735 -5.026527,-7.477182 -5.026527,-7.477182 z m -36.735981,6.57682 c 0,0 1.219088,6.326995 -3.076735,13.833383 -4.295824,7.506386 2.987295,8.007859 2.987295,8.007859 0,0 5.338842,0.842574 6.147508,-4.793982 0.38921,-2.712864 0.195899,-7.012375 -1.037504,-9.570078 -2.045494,-4.241735 -5.020564,-7.477182 -5.020564,-7.477182 z m 73.668732,0.387573 c 0,0 1.22505,6.326995 -3.07078,13.833383 -4.29582,7.506386 2.98134,8.00786 2.98134,8.00786 0,0 5.33884,0.842573 6.14751,-4.793983 0.3892,-2.712863 0.20186,-7.012374 -1.03155,-9.570078 -2.04548,-4.241735 -5.02652,-7.477182 -5.02652,-7.477182 z M 76.530809,69.405424 c -0.67794,2.807414 -0.64835,5.483328 0,8.049598 z m -36.741944,6.570857 c -0.677941,2.807414 -0.648353,5.489291 0,8.055561 z m 73.674695,0.387573 c -0.67794,2.807414 -0.64835,5.489291 0,8.055561 z m -32.651558,1.81265 -8.109224,0.006 c 1.33547,0.342989 1.883893,0.379998 3.810143,0.423349 2.711548,-0.08974 2.348252,-0.07601 4.299081,-0.429312 z" /><path
     style="display:inline;fill:none;stroke:#aaaaaa;stroke-width:5;stroke-linecap:round;stroke-linejoin:round;stroke-dasharray:none"
     d="m 17.388289,79.33786 0.004,30.94094"
     id="path1" /><path
     style="display:inline;fill:none;stroke:#aaaaaa;stroke-width:5;stroke-linecap:round;stroke-linejoin:round;stroke-dasharray:none"
     d="m 138.81361,79.286065 -0.008,49.129325"
     id="path21" /><path
     id="path14"
     style="display:none;fill:none;stroke:#aaaaaa;stroke-width:5;stroke-linecap:round;stroke-linejoin:round;stroke-dasharray:none"
     d="m 76.262489,47.492629 c 0,0 1.225053,6.332957 -3.070773,13.839346 -4.295826,7.506385 2.981333,8.001897 2.981333,8.001897 0,0 5.344801,0.842573 6.15347,-4.793983 0.38921,-2.712863 0.195905,-7.012374 -1.037503,-9.570078 -2.045488,-4.241735 -5.026527,-7.477182 -5.026527,-7.477182 z m -36.735981,6.57682 c 0,0 1.219088,6.326995 -3.076735,13.833383 -4.295824,7.506386 2.987295,8.007859 2.987295,8.007859 0,0 5.338842,0.842574 6.147508,-4.793982 0.38921,-2.712864 0.195899,-7.012375 -1.037504,-9.570078 -2.045494,-4.241735 -5.020564,-7.477182 -5.020564,-7.477182 z m 73.668732,0.387573 c 0,0 1.22505,6.326995 -3.07078,13.833383 -4.29582,7.506386 2.98134,8.00786 2.98134,8.00786 0,0 5.33884,0.842573 6.14751,-4.793983 0.3892,-2.712863 0.20186,-7.012374 -1.03155,-9.570078 -2.04548,-4.241735 -5.02652,-7.477182 -5.02652,-7.477182 z M 76.530809,69.405424 c -0.67794,2.807414 -0.64835,5.483328 0,8.049598 z m -36.741944,6.570857 c -0.677941,2.807414 -0.648353,5.489291 0,8.055561 z m 73.674695,0.387573 c -0.67794,2.807414 -0.64835,5.489291 0,8.055561 z m -32.651558,1.81265 -8.109224,0.006 c 1.33547,0.342989 1.883893,0.379998 3.810143,0.423349 2.711548,-0.08974 2.348252,-0.07601 4.299081,-0.429312 z" /></svg>
