<?xml version="1.0" encoding="UTF-8" standalone="no"?>
<!-- Created with Inkscape (http://www.inkscape.org/) -->

<svg
   width="52px"
   height="52px"
   viewBox="0 0 158.75 158.75"
   version="1.1"
   id="svg1"
   xml:space="preserve"
   xmlns="http://www.w3.org/2000/svg"
   xmlns:svg="http://www.w3.org/2000/svg"><defs
     id="defs1" /><g
     id="layer1"><path
       id="path20"
       style="display:inline;fill:none;stroke:#aaa;stroke-width:3;stroke-linecap:round;stroke-linejoin:round;stroke-dasharray:none"
       d="m 19.576468,81.856412 c 7.077482,-4.131448 22.476025,-7.038943 49.050156,-7.17316 m 20.731948,0.614546 c 25.666768,0.288766 40.344408,2.560086 47.194698,6.558157 m -59.452855,1.229241 c 0.613321,0.606209 0.864889,0.676197 1.749526,0.752818 1.245292,-0.158623 1.078367,-0.135191 1.974293,-0.759636 m 57.919206,1.381964 v 0 c 0,5.402387 -27.16655,9.781887 -60.678178,9.781887 -33.500491,0 -60.66242,-4.376697 -60.678174,-9.777287" /><path
       id="path21"
       style="display:inline;fill:none;stroke:#aaa;stroke-width:5;stroke-linecap:round;stroke-linejoin:round;stroke-dasharray:none"
       d="m 138.81361,79.286065 -0.008,49.129325 M 17.388289,79.33786 l 0.004,30.94094 M 91.568246,69.493536 c 30.337554,0.542952 47.231464,4.688238 47.231464,9.721376 v 0 c 0,5.402245 -27.17911,9.781639 -60.706189,9.781639 -33.527072,0 -60.706195,-4.379394 -60.706192,-9.781639 0,-5.215054 19.514438,-9.476914 51.430952,-9.766003 m 9.863205,-15.864104 c 0,0 1.220918,6.330694 -3.07491,13.83709 -4.295828,7.506393 2.984472,8.003804 2.984472,8.003804 0,0 5.341148,0.843323 6.149815,-4.793239 0.38921,-2.712866 0.19729,-7.013218 -1.036114,-9.570924 -2.045496,-4.241739 -5.023263,-7.476731 -5.023263,-7.476731 z m 0.26438,29.96284 c -0.648354,-2.566272 -0.677942,-5.245047 0,-8.052464" /></g></svg>
