<?xml version="1.0" encoding="UTF-8" standalone="no"?>
<!-- Created with Inkscape (http://www.inkscape.org/) -->

<svg
   width="52px"
   height="52px"
   viewBox="0 0 158.75 158.75"
   version="1.1"
   id="svg1"
   xml:space="preserve"
   xmlns="http://www.w3.org/2000/svg"
   xmlns:svg="http://www.w3.org/2000/svg"><defs
     id="defs1" /><path
     style="display:inline;fill:none;stroke:#aaaaaa;stroke-width:3;stroke-linecap:round;stroke-linejoin:round;stroke-dasharray:none"
     d="m 138.74344,84.460342 v 0 c 0,5.402387 -27.16655,9.781887 -60.678178,9.781887 -33.500491,0 -60.66242,-4.376697 -60.678174,-9.777287"
     id="path3" /><path
     style="display:inline;fill:none;stroke:#aaaaaa;stroke-width:3;stroke-linecap:round;stroke-linejoin:round;stroke-dasharray:none"
     d="m 99.613128,75.024343 c 25.666772,0.288766 30.089852,2.833541 36.940142,6.831612"
     id="path1" /><path
     style="display:inline;fill:none;stroke:#aaaaaa;stroke-width:3;stroke-linecap:round;stroke-linejoin:round;stroke-dasharray:none"
     d="M 19.576468,81.856412 C 26.65395,77.724964 35.489577,76.458198 58.78225,75.503616"
     id="path20" /><path
     style="display:inline;fill:none;stroke:#aaaaaa;stroke-width:5.00063;stroke-linecap:round;stroke-linejoin:round;stroke-dasharray:none"
     d="m 100.04535,69.493536 c 22.73072,0.05393 39.07976,4.471305 38.75436,9.721376 v 0 c 0,5.402245 -27.17911,9.781639 -60.706189,9.781639 -33.527072,0 -60.706195,-4.379394 -60.706192,-9.781639 0,-5.215054 14.865706,-9.066732 40.629487,-9.355821"
     id="path5" /><path
     style="display:inline;fill:none;stroke:#aaaaaa;stroke-width:5;stroke-linecap:round;stroke-linejoin:round;stroke-dasharray:none"
     d="m 17.388289,79.33786 0.004,30.94094"
     id="path4" /><path
     style="display:inline;fill:none;stroke:#aaaaaa;stroke-width:5;stroke-linecap:round;stroke-linejoin:round;stroke-dasharray:none"
     d="m 138.81361,79.286065 -0.008,49.129325"
     id="path21" /><rect
     style="fill:none;stroke:#ababab;stroke-width:5.00063;stroke-linecap:butt;stroke-linejoin:miter;stroke-dasharray:none"
     id="rect7"
     width="24.694937"
     height="19.087439"
     x="66.374222"
     y="68.489822"
     ry="0.068363704" /><rect
     style="fill:none;stroke:#ababab;stroke-width:2.29048;stroke-linecap:butt;stroke-linejoin:miter;stroke-dasharray:none"
     id="rect8"
     width="6.2123547"
     height="15.918326"
     x="75.478783"
     y="73.014015"
     ry="0.057013191" /></svg>
