{
  "asset": {
    "version": "2.0",
    "generator": "babylon.js glTF exporter for 3dsmax 2024 v20230922.2"
  },
  "scene": 0,
  "scenes": [
    {
      "nodes": [
        0
      ]
    }
  ],
  "nodes": [
    {
      "children": [
        1,
        2,
        3,
        4,
        5
      ],
      "mesh": 0,
      "translation": [
        -0.00024364471,
        0.0,
        0.0007310334
      ],
      "name": "container"
    },
    {
      "mesh": 1,
      "name": "wax"
    },
    {
      "mesh": 2,
      "name": "wrap"
    },
    {
      "mesh": 3,
      "translation": [
        0.0,
        0.164286911,
        7.45058E-10
      ],
      "name": "singleWick"
    },
    {
      "mesh": 4,
      "translation": [
        0.03922327,
        0.164286911,
        -0.029564023
      ],
      "name": "tripleWick"
    },
    {
      "mesh": 5,
      "translation": [
        0.0,
        0.158810839,
        8.94069652E-10
      ],
      "name": "woodWick"
    }
  ],
  "meshes": [
    {
      "primitives": [
        {
          "attributes": {
            "POSITION": 1,
            "TANGENT": 2,
            "NORMAL": 3,
            "TEXCOORD_0": 4
          },
          "indices": 0,
          "material": 0
        }
      ],
      "name": "container"
    },
    {
      "primitives": [
        {
          "attributes": {
            "POSITION": 6,
            "TANGENT": 7,
            "NORMAL": 8,
            "TEXCOORD_0": 9
          },
          "indices": 5,
          "material": 1
        }
      ],
      "name": "wax"
    },
    {
      "primitives": [
        {
          "attributes": {
            "POSITION": 11,
            "TANGENT": 12,
            "NORMAL": 13,
            "TEXCOORD_0": 14
          },
          "indices": 10,
          "material": 2
        }
      ],
      "name": "wrap"
    },
    {
      "primitives": [
        {
          "attributes": {
            "POSITION": 16,
            "TANGENT": 17,
            "NORMAL": 18,
            "TEXCOORD_0": 19
          },
          "indices": 15,
          "material": 3
        }
      ],
      "name": "singleWick"
    },
    {
      "primitives": [
        {
          "attributes": {
            "POSITION": 21,
            "TANGENT": 22,
            "NORMAL": 23,
            "TEXCOORD_0": 24
          },
          "indices": 20,
          "material": 3
        }
      ],
      "name": "tripleWick"
    },
    {
      "primitives": [
        {
          "attributes": {
            "POSITION": 26,
            "TANGENT": 27,
            "NORMAL": 28,
            "TEXCOORD_0": 29
          },
          "indices": 25,
          "material": 4
        }
      ],
      "name": "woodWick"
    }
  ],
  "accessors": [
    {
      "bufferView": 0,
      "componentType": 5123,
      "count": 2688,
      "type": "SCALAR",
      "name": "accessorIndices"
    },
    {
      "bufferView": 1,
      "componentType": 5126,
      "count": 622,
      "max": [
        0.099999994,
        0.179999992,
        0.099999994
      ],
      "min": [
        -0.099999994,
        0.0,
        -0.099999994
      ],
      "type": "VEC3",
      "name": "accessorPositions"
    },
    {
      "bufferView": 2,
      "componentType": 5126,
      "count": 622,
      "type": "VEC4",
      "name": "accessorTangents"
    },
    {
      "bufferView": 1,
      "byteOffset": 7464,
      "componentType": 5126,
      "count": 622,
      "type": "VEC3",
      "name": "accessorNormals"
    },
    {
      "bufferView": 3,
      "componentType": 5126,
      "count": 622,
      "type": "VEC2",
      "name": "accessorUVs"
    },
    {
      "bufferView": 0,
      "byteOffset": 5376,
      "componentType": 5123,
      "count": 1224,
      "type": "SCALAR",
      "name": "accessorIndices"
    },
    {
      "bufferView": 1,
      "byteOffset": 14928,
      "componentType": 5126,
      "count": 291,
      "max": [
        0.0910938755,
        0.164854944,
        0.0910938755
      ],
      "min": [
        -0.09109386,
        0.008893219,
        -0.09109386
      ],
      "type": "VEC3",
      "name": "accessorPositions"
    },
    {
      "bufferView": 2,
      "byteOffset": 9952,
      "componentType": 5126,
      "count": 291,
      "type": "VEC4",
      "name": "accessorTangents"
    },
    {
      "bufferView": 1,
      "byteOffset": 18420,
      "componentType": 5126,
      "count": 291,
      "type": "VEC3",
      "name": "accessorNormals"
    },
    {
      "bufferView": 3,
      "byteOffset": 4976,
      "componentType": 5126,
      "count": 291,
      "type": "VEC2",
      "name": "accessorUVs"
    },
    {
      "bufferView": 0,
      "byteOffset": 7824,
      "componentType": 5123,
      "count": 84,
      "type": "SCALAR",
      "name": "accessorIndices"
    },
    {
      "bufferView": 1,
      "byteOffset": 21912,
      "componentType": 5126,
      "count": 30,
      "max": [
        0.09817046,
        0.159758925,
        0.100093707
      ],
      "min": [
        -0.09817042,
        0.02644751,
        0.0195271615
      ],
      "type": "VEC3",
      "name": "accessorPositions"
    },
    {
      "bufferView": 2,
      "byteOffset": 14608,
      "componentType": 5126,
      "count": 30,
      "type": "VEC4",
      "name": "accessorTangents"
    },
    {
      "bufferView": 1,
      "byteOffset": 22272,
      "componentType": 5126,
      "count": 30,
      "type": "VEC3",
      "name": "accessorNormals"
    },
    {
      "bufferView": 3,
      "byteOffset": 7304,
      "componentType": 5126,
      "count": 30,
      "type": "VEC2",
      "name": "accessorUVs"
    },
    {
      "bufferView": 0,
      "byteOffset": 7992,
      "componentType": 5123,
      "count": 90,
      "type": "SCALAR",
      "name": "accessorIndices"
    },
    {
      "bufferView": 1,
      "byteOffset": 22632,
      "componentType": 5126,
      "count": 27,
      "max": [
        0.00197998574,
        0.0126085347,
        0.00228629075
      ],
      "min": [
        -0.001979986,
        -0.00466064457,
        -0.00228629075
      ],
      "type": "VEC3",
      "name": "accessorPositions"
    },
    {
      "bufferView": 2,
      "byteOffset": 15088,
      "componentType": 5126,
      "count": 27,
      "type": "VEC4",
      "name": "accessorTangents"
    },
    {
      "bufferView": 1,
      "byteOffset": 22956,
      "componentType": 5126,
      "count": 27,
      "type": "VEC3",
      "name": "accessorNormals"
    },
    {
      "bufferView": 3,
      "byteOffset": 7544,
      "componentType": 5126,
      "count": 27,
      "type": "VEC2",
      "name": "accessorUVs"
    },
    {
      "bufferView": 0,
      "byteOffset": 8172,
      "componentType": 5123,
      "count": 270,
      "type": "SCALAR",
      "name": "accessorIndices"
    },
    {
      "bufferView": 1,
      "byteOffset": 23280,
      "componentType": 5126,
      "count": 81,
      "max": [
        0.00197998574,
        0.0125928186,
        0.07443569
      ],
      "min": [
        -0.07617684,
        -0.00466064457,
        -0.00228629075
      ],
      "type": "VEC3",
      "name": "accessorPositions"
    },
    {
      "bufferView": 2,
      "byteOffset": 15520,
      "componentType": 5126,
      "count": 81,
      "type": "VEC4",
      "name": "accessorTangents"
    },
    {
      "bufferView": 1,
      "byteOffset": 24252,
      "componentType": 5126,
      "count": 81,
      "type": "VEC3",
      "name": "accessorNormals"
    },
    {
      "bufferView": 3,
      "byteOffset": 7760,
      "componentType": 5126,
      "count": 81,
      "type": "VEC2",
      "name": "accessorUVs"
    },
    {
      "bufferView": 0,
      "byteOffset": 8712,
      "componentType": 5123,
      "count": 102,
      "type": "SCALAR",
      "name": "accessorIndices"
    },
    {
      "bufferView": 1,
      "byteOffset": 25224,
      "componentType": 5126,
      "count": 60,
      "max": [
        0.008403954,
        0.0175551679,
        0.005552126
      ],
      "min": [
        -0.008403954,
        0.0,
        -0.005552126
      ],
      "type": "VEC3",
      "name": "accessorPositions"
    },
    {
      "bufferView": 2,
      "byteOffset": 16816,
      "componentType": 5126,
      "count": 60,
      "type": "VEC4",
      "name": "accessorTangents"
    },
    {
      "bufferView": 1,
      "byteOffset": 25944,
      "componentType": 5126,
      "count": 60,
      "type": "VEC3",
      "name": "accessorNormals"
    },
    {
      "bufferView": 3,
      "byteOffset": 8408,
      "componentType": 5126,
      "count": 60,
      "type": "VEC2",
      "name": "accessorUVs"
    }
  ],
  "bufferViews": [
    {
      "buffer": 0,
      "byteLength": 8916,
      "name": "bufferViewScalar"
    },
    {
      "buffer": 0,
      "byteOffset": 8916,
      "byteLength": 26664,
      "byteStride": 12,
      "name": "bufferViewFloatVec3"
    },
    {
      "buffer": 0,
      "byteOffset": 35580,
      "byteLength": 17776,
      "byteStride": 16,
      "name": "bufferViewFloatVec4"
    },
    {
      "buffer": 0,
      "byteOffset": 53356,
      "byteLength": 8888,
      "byteStride": 8,
      "name": "bufferViewFloatVec2"
    }
  ],
  "buffers": [
    {
      "uri": "Candle_wide.bin",
      "byteLength": 62244
    }
  ],
  "materials": [
    {
      "pbrMetallicRoughness": {
        "metallicFactor": 0.0,
        "roughnessFactor": 0.0
      },
      "name": "Container"
    },
    {
      "pbrMetallicRoughness": {
        "metallicFactor": 0.0,
        "roughnessFactor": 0.0
      },
      "name": "Wax"
    },
    {
      "pbrMetallicRoughness": {
        "baseColorTexture": {
          "index": 0
        },
        "metallicFactor": 0.0,
        "roughnessFactor": 0.0
      },
      "name": "Wrap"
    },
    {
      "pbrMetallicRoughness": {
        "baseColorFactor": [
          0.3344578,
          0.1036341,
          0.0,
          1.0
        ],
        "metallicFactor": 0.0
      },
      "name": "Wicks"
    },
    {
      "pbrMetallicRoughness": {
        "baseColorFactor": [
          0.987707257,
          0.397657126,
          0.06575389,
          1.0
        ],
        "metallicFactor": 0.0,
        "roughnessFactor": 0.0
      },
      "name": "WoodWick"
    }
  ],
  "textures": [
    {
      "sampler": 0,
      "source": 0,
      "name": "apple2.png"
    }
  ],
  "images": [
    {
      "uri": "apple2.png"
    }
  ],
  "samplers": [
    {
      "magFilter": 9729,
      "minFilter": 9987
    }
  ]
}